<?xml version="1.0" encoding="UTF-8"?>
<svg version="1.1" xmlns="http://www.w3.org/2000/svg" width="512" height="512">
<path d="M0 0 C1.01790619 0.00215515 2.03581238 0.0043103 3.08456421 0.00653076 C17.69363523 0.05620146 32.02575853 0.30709809 46.375 3.3125 C47.34985352 3.51117676 48.32470703 3.70985352 49.32910156 3.91455078 C97.7109774 14.03517194 141.69928269 35.9516877 177.375 70.3125 C178.3640332 71.26068604 178.3640332 71.26068604 179.37304688 72.22802734 C188.86130305 81.37247479 197.6012044 90.66984009 205.375 101.3125 C206.23306152 102.46355017 207.09113451 103.61459177 207.94921875 104.765625 C213.98736829 112.95680614 219.34595521 121.47054105 224.375 130.3125 C224.73948242 130.94430176 225.10396484 131.57610352 225.47949219 132.22705078 C247.08534998 169.97532572 256.85198095 212.74189997 256.6875 255.9375 C256.68534485 256.95540619 256.6831897 257.97331238 256.68096924 259.02206421 C256.63129854 273.63113523 256.38040191 287.96325853 253.375 302.3125 C253.07698486 303.77478027 253.07698486 303.77478027 252.77294922 305.26660156 C242.65232806 353.6484774 220.7358123 397.63678269 186.375 433.3125 C185.74287598 433.97185547 185.11075195 434.63121094 184.45947266 435.31054688 C175.31502521 444.79880305 166.01765991 453.5387044 155.375 461.3125 C154.22394983 462.17056152 153.07290823 463.02863451 151.921875 463.88671875 C143.73224019 469.92427396 135.22961724 475.30707302 126.375 480.3125 C125.66778809 480.7146875 124.96057617 481.116875 124.23193359 481.53125 C101.09654164 494.5566741 75.92537591 503.30551461 49.9375 508.625 C49.21860596 508.77235596 48.49971191 508.91971191 47.7590332 509.0715332 C33.08339502 511.86090125 18.55831162 512.66142619 3.64770508 512.62817383 C0.70811513 512.6250221 -2.2304558 512.64854926 -5.16992188 512.67382812 C-18.54306192 512.71848737 -31.43916711 511.51301542 -44.625 509.3125 C-46.33055054 509.03031616 -46.33055054 509.03031616 -48.07055664 508.74243164 C-91.33802759 500.97044532 -132.38793216 480.98345309 -165.625 452.3125 C-166.37007813 451.67828125 -167.11515625 451.0440625 -167.8828125 450.390625 C-181.38779833 438.57948485 -194.05918743 425.82889772 -204.625 411.3125 C-205.48149066 410.16255169 -206.33826433 409.01281411 -207.1953125 407.86328125 C-213.23534209 399.67315742 -218.61867614 391.16870382 -223.625 382.3125 C-224.0271875 381.60528809 -224.429375 380.89807617 -224.84375 380.16943359 C-237.8691741 357.03404164 -246.61801461 331.86287591 -251.9375 305.875 C-252.08485596 305.15610596 -252.23221191 304.43721191 -252.3840332 303.6965332 C-255.35789088 288.05024391 -255.99800362 272.57681954 -255.9375 256.6875 C-255.93534485 255.66959381 -255.9331897 254.65168762 -255.93096924 253.60293579 C-255.88129854 238.99386477 -255.63040191 224.66174147 -252.625 210.3125 C-252.42632324 209.33764648 -252.22764648 208.36279297 -252.02294922 207.35839844 C-241.90232806 158.9765226 -219.9858123 114.98821731 -185.625 79.3125 C-184.99287598 78.65314453 -184.36075195 77.99378906 -183.70947266 77.31445312 C-174.56502521 67.82619695 -165.26765991 59.0862956 -154.625 51.3125 C-153.47394983 50.45443848 -152.32290823 49.59636549 -151.171875 48.73828125 C-142.98224019 42.70072604 -134.47961724 37.31792698 -125.625 32.3125 C-124.91778809 31.9103125 -124.21057617 31.508125 -123.48193359 31.09375 C-100.34654164 18.0683259 -75.17537591 9.31948539 -49.1875 4 C-48.46860596 3.85264404 -47.74971191 3.70528809 -47.0090332 3.5534668 C-31.36274391 0.57960912 -15.88931954 -0.06050362 0 0 Z " fill="#6CF1ED" transform="translate(255.625,-0.3125)"/>
<path d="M0 0 C-0.60220525 8.60701905 -1.41572051 17.1615992 -2.453125 25.7265625 C-2.59372849 26.90246948 -2.73433197 28.07837646 -2.87919617 29.28991699 C-3.3326295 33.06870955 -3.7908845 36.8468939 -4.25 40.625 C-4.40518097 41.90936951 -4.56036194 43.19373901 -4.72024536 44.51702881 C-7.20509532 65.05360646 -9.89620414 85.54761886 -13 106 C-11.02 106 -9.04 106 -7 106 C-7 192.46 -7 278.92 -7 368 C-82.9 368 -158.8 368 -237 368 C-237 281.54 -237 195.08 -237 106 C-235.02 106 -233.04 106 -231 106 C-231.60327774 103.87474747 -232.20767584 101.74981296 -232.8125 99.625 C-232.99264648 98.98232178 -233.17279297 98.33964355 -233.35839844 97.67749023 C-234.14803788 94.87986058 -234.96059629 92.11095689 -235.93359375 89.37109375 C-239.08051646 80.47237928 -239.93216176 70.17829455 -235.9375 61.4375 C-231.7174679 54.26106124 -225.44775324 49.46376429 -217.37133789 47.29370117 C-180.76842848 39.02489121 -180.76842848 39.02489121 -167.84765625 46.61328125 C-166 48 -166 48 -164.7265625 49.62109375 C-161.07871409 52.53442065 -155.43308556 51.85850604 -150.94140625 51.6796875 C-145.55300582 50.75046879 -144.04810339 48.7120481 -141 44.3984375 C-136.21666539 38.66217295 -127.73594379 35.42926088 -120.37109375 34.76171875 C-110.05827462 34.50080855 -101.88857061 36.96326279 -93.734375 43.33984375 C-91.94275622 45.05479415 -90.79104527 46.80708361 -89.4375 48.875 C-87.18223349 51.73334613 -86.14382864 51.98219865 -82.43359375 52.44140625 C-78.60988636 52.51301648 -74.81376588 52.271182 -71 52 C-69.68 52 -68.36 52 -67 52 C-65.68 41.77 -64.36 31.54 -63 21 C-54 21 -54 21 -52 22 C-51.67 17.38 -51.34 12.76 -51 8 C-45.93737739 6.46260703 -40.93868342 5.36067546 -35.72265625 4.4921875 C-34.95247665 4.36184113 -34.18229706 4.23149475 -33.38877869 4.09719849 C-31.76970537 3.82461107 -30.15027721 3.55412369 -28.53051758 3.28564453 C-26.07170939 2.87653232 -23.61499135 2.45620765 -21.15820312 2.03515625 C-19.57563542 1.77014814 -17.99295649 1.50580322 -16.41015625 1.2421875 C-15.68594986 1.11721893 -14.96174347 0.99225037 -14.21559143 0.86349487 C-9.4184754 0.0817806 -4.86093928 -0.10862053 0 0 Z " fill="#B26E5A" transform="translate(378,77)"/>
<path d="M0 0 C4.26407041 0.50316161 6.33535159 2.9243528 9.32020569 5.85177612 C9.84420139 6.3619195 10.3681971 6.87206288 10.90807146 7.39766514 C12.6647658 9.11190109 14.41058096 10.83680149 16.15649414 12.56201172 C17.4127611 13.79293329 18.66956462 15.02330746 19.92686462 16.25317383 C24.05785371 20.30033874 28.17241498 24.36399227 32.28515625 28.4296875 C32.98619374 29.12213011 33.68723123 29.81457273 34.40951228 30.52799845 C41.02804365 37.06541743 47.64133024 43.60808709 54.24047184 50.16508293 C62.66511114 58.53544734 71.11545843 66.87775809 79.60447222 75.18284404 C85.57927335 81.03258801 91.52271057 86.91307028 97.4441976 92.81677067 C100.97678981 96.33715041 104.52128653 99.84307221 108.09999275 103.31661606 C111.47408134 106.59292015 114.80727602 109.9060849 118.11446571 113.24986267 C119.32640874 114.46219004 120.55184961 115.66121619 121.79216385 116.8445015 C130.97782481 125.63058027 133.92330844 133.04231247 134.83057511 145.71035039 C135.06281652 148.84891785 135.43262947 151.96772671 135.79603988 155.09336829 C136.0384411 157.35934973 136.1397576 159.60091648 136.16113281 161.87939453 C136.17058929 162.7262532 136.18004578 163.57311188 136.18978882 164.44563293 C136.19418976 165.33240219 136.1985907 166.21917145 136.203125 167.1328125 C136.21018463 168.07916061 136.21724426 169.02550873 136.22451782 170.00053406 C136.45241099 209.51652112 136.45241099 209.51652112 133 226 C132.70198486 227.46228027 132.70198486 227.46228027 132.39794922 228.95410156 C122.27732806 277.3359774 100.3608123 321.32428269 66 357 C65.36787598 357.65935547 64.73575195 358.31871094 64.08447266 358.99804688 C54.94002521 368.48630305 45.64265991 377.2262044 35 385 C33.84894983 385.85806152 32.69790823 386.71613451 31.546875 387.57421875 C23.35724019 393.61177396 14.85461724 398.99457302 6 404 C5.29278809 404.4021875 4.58557617 404.804375 3.85693359 405.21875 C-19.27845836 418.2441741 -44.44962409 426.99301461 -70.4375 432.3125 C-71.15639404 432.45985596 -71.87528809 432.60721191 -72.6159668 432.7590332 C-87.29160498 435.54840125 -101.81668838 436.34892619 -116.72729492 436.31567383 C-119.66688487 436.3125221 -122.6054558 436.33604926 -125.54492188 436.36132812 C-141.27306472 436.41367377 -157.88593046 435.78377651 -173 431 C-173.495 429.515 -173.495 429.515 -174 428 C-174.99 427.67 -175.98 427.34 -177 427 C-177 426.34 -177 425.68 -177 425 C-177.66 425 -178.32 425 -179 425 C-179 424.34 -179 423.68 -179 423 C-179.66 423 -180.32 423 -181 423 C-181 422.34 -181 421.68 -181 421 C-181.66 421 -182.32 421 -183 421 C-183 420.34 -183 419.68 -183 419 C-183.66 419 -184.32 419 -185 419 C-186.625 417.625 -186.625 417.625 -188 416 C-188 415.34 -188 414.68 -188 414 C-188.66 414 -189.32 414 -190 414 C-191.33203125 412.64453125 -191.33203125 412.64453125 -192.8125 410.8125 C-195.3946482 407.69762705 -198.09937562 404.82624939 -201 402 C-201.825 401.154375 -202.65 400.30875 -203.5 399.4375 C-205.91746748 396.98847492 -205.91746748 396.98847492 -208.5 395.0625 C-211.42320625 392.65085484 -213.60595036 389.9327108 -216 387 C-218.3997693 384.48024224 -220.74949883 382.1941384 -223.5 380.0625 C-226.46344168 377.61766061 -228.58415306 374.98802121 -231 372 C-232.485 370.515 -232.485 370.515 -234 369 C-158.43 369 -82.86 369 -5 369 C-5 282.54 -5 196.08 -5 107 C-6.98 107 -8.96 107 -11 107 C-10.43897233 96.2776392 -9.11793927 85.7338201 -7.64535522 75.10620117 C-5.06421581 56.45903794 -2.72392993 37.79088723 -0.56152344 19.09082031 C-0.46311661 18.24517517 -0.36470978 17.39953003 -0.26332092 16.52825928 C-0.0810386 14.95935491 0.09941076 13.39023597 0.27760315 11.82086182 C0.70097001 8.17299613 1.21071361 4.58758557 2 1 C1.01 0.505 1.01 0.505 0 0 Z " fill="#4CD6CC" transform="translate(376,76)"/>
<path d="M0 0 C37.62 0 75.24 0 114 0 C114 85.8 114 171.6 114 260 C76.38 260 38.76 260 0 260 C0 238.88 0 217.76 0 196 C5.94 196 11.88 196 18 196 C18.3609375 194.78570312 18.721875 193.57140625 19.09375 192.3203125 C21.25150588 185.85964857 24.40048769 179.92466557 27.5 173.875 C28.77687344 171.35720105 30.04872608 168.83687868 31.3203125 166.31640625 C31.79581039 165.37564491 31.79581039 165.37564491 32.28091431 164.4158783 C35.50246503 158.03060437 38.58816767 151.58466356 41.6496582 145.12158203 C44.47142746 139.17365894 47.33919199 133.25033939 50.23828125 127.33984375 C50.98073817 125.82256196 51.72308824 124.30522787 52.46533203 122.7878418 C53.57084916 120.52782894 54.67820511 118.26882787 55.79193115 116.0128479 C56.82877839 113.91213661 57.85840386 111.80802298 58.88671875 109.703125 C59.20175858 109.06982773 59.5167984 108.43653046 59.84138489 107.78404236 C61.20523566 104.97696682 62 103.16692859 62 100 C61.34515625 99.68772461 60.6903125 99.37544922 60.015625 99.05371094 C57.01005019 97.61990742 54.00502194 96.18496187 51 94.75 C49.97003906 94.25886719 48.94007813 93.76773438 47.87890625 93.26171875 C46.86699219 92.77832031 45.85507812 92.29492188 44.8125 91.796875 C43.81992187 91.32314453 42.82734375 90.84941406 41.8046875 90.36132812 C39.32704486 89.15873974 36.88148738 87.90961845 34.4375 86.640625 C31.18358353 84.78463521 31.18358353 84.78463521 28 85 C19.09 102.82 10.18 120.64 1 139 C0.67 139 0.34 139 0 139 C0 93.13 0 47.26 0 0 Z " fill="#915041" transform="translate(256,184)"/>
<path d="M0 0 C-0.6022042 8.60700405 -1.41548369 17.16163695 -2.453125 25.7265625 C-2.595224 26.91253021 -2.737323 28.09849792 -2.88372803 29.32040405 C-3.18490944 31.82656559 -3.487523 34.33255539 -3.79150391 36.83837891 C-4.23956539 40.53882278 -4.68065643 44.24004827 -5.12109375 47.94140625 C-7.46392647 67.34906417 -10.23360899 86.63526295 -13 106 C-59.53 106 -106.06 106 -154 106 C-154.99 91.81 -155.98 77.62 -157 63 C-158.65 59.37 -160.3 55.74 -162 52 C-161.01 52.03222656 -160.02 52.06445312 -159 52.09765625 C-151.35360696 52.2703192 -151.35360696 52.2703192 -144.64453125 49.140625 C-143.41029285 47.57216853 -142.20737054 45.9786183 -141.03515625 44.36328125 C-136.14989639 38.69037873 -127.76418849 35.43182095 -120.37109375 34.76171875 C-110.05827462 34.50080855 -101.88857061 36.96326279 -93.734375 43.33984375 C-91.94275622 45.05479415 -90.79104527 46.80708361 -89.4375 48.875 C-87.18223349 51.73334613 -86.14382864 51.98219865 -82.43359375 52.44140625 C-78.60988636 52.51301648 -74.81376588 52.271182 -71 52 C-69.68 52 -68.36 52 -67 52 C-65.68 41.77 -64.36 31.54 -63 21 C-54 21 -54 21 -52 22 C-51.67 17.38 -51.34 12.76 -51 8 C-45.93737739 6.46260703 -40.93868342 5.36067546 -35.72265625 4.4921875 C-34.95247665 4.36184113 -34.18229706 4.23149475 -33.38877869 4.09719849 C-31.76970537 3.82461107 -30.15027721 3.55412369 -28.53051758 3.28564453 C-26.07170939 2.87653232 -23.61499135 2.45620765 -21.15820312 2.03515625 C-19.57563542 1.77014814 -17.99295649 1.50580322 -16.41015625 1.2421875 C-15.68594986 1.11721893 -14.96174347 0.99225037 -14.21559143 0.86349487 C-9.4184754 0.0817806 -4.86093928 -0.10862053 0 0 Z " fill="#85D641" transform="translate(378,77)"/>
<path d="M0 0 C1.25170898 2.01171875 1.25170898 2.01171875 2.49609375 4.6875 C2.9667627 5.68491211 3.43743164 6.68232422 3.92236328 7.70996094 C4.4223584 8.79567383 4.92235352 9.88138672 5.4375 11 C6.50614859 13.27621157 7.57517029 15.55224801 8.64453125 17.828125 C9.19447754 19.00697266 9.74442383 20.18582031 10.31103516 21.40039062 C13.53643283 28.27452524 16.86122846 35.10116445 20.16577148 41.9375 C20.63958252 42.92234375 21.11339355 43.9071875 21.6015625 44.921875 C22.01744629 45.78393555 22.43333008 46.64599609 22.86181641 47.53417969 C23.99679905 49.99306529 25.01727292 52.47685809 26 55 C27.77634538 52.33548192 29.15108792 49.77357157 30.55029297 46.90185547 C31.05777069 45.86423065 31.56524841 44.82660583 32.08810425 43.75753784 C32.90687546 42.07931442 32.90687546 42.07931442 33.7421875 40.3671875 C34.90161132 38.01135391 36.06170858 35.65586313 37.22265625 33.30078125 C39.05601456 29.58003963 40.88529764 25.85746619 42.69970703 22.12744141 C43.8837355 19.69404976 45.07502445 17.26449846 46.27493286 14.83889771 C47.40568679 12.5528943 48.52568268 10.2615329 49.63400269 7.96456909 C50.14778473 6.9332486 50.66156677 5.9019281 51.19091797 4.83935547 C51.63789032 3.92685028 52.08486267 3.01434509 52.54537964 2.07418823 C54 0 54 0 55.99050903 -0.873703 C59.26114237 -1.07926311 61.49674802 0.41526945 64.375 1.89453125 C64.98134277 2.20194748 65.58768555 2.50936371 66.21240234 2.82609558 C68.14753362 3.81042551 70.07366429 4.81108447 72 5.8125 C73.29631216 6.47571065 74.59318194 7.1378326 75.890625 7.79882812 C78.27704557 9.01651304 80.65907814 10.24159581 83.0390625 11.47192383 C85.35143928 12.66529176 87.66881338 13.84400151 90 15 C89.40218613 18.64069608 88.40084184 21.58247609 86.76611328 24.88427734 C86.30117462 25.83072113 85.83623596 26.77716492 85.35720825 27.75228882 C84.85003265 28.76989288 84.34285706 29.78749695 83.8203125 30.8359375 C83.29291473 31.90631256 82.76551697 32.97668762 82.22213745 34.07949829 C80.52859152 37.51408032 78.82713867 40.94466952 77.125 44.375 C74.91702768 48.84003941 72.71225168 53.3066529 70.5078125 57.7734375 C69.96078674 58.88031921 69.41376099 59.98720093 68.85015869 61.12762451 C64.81337516 69.30941192 60.8484749 77.52339504 56.94656372 85.77035522 C53.08262548 93.91280824 49.03442961 101.93114078 45 110 C33.12 110 21.24 110 9 110 C-14.04024625 62.96373383 -14.04024625 62.96373383 -21.52734375 47.19140625 C-23.43712396 43.16861041 -25.3731051 39.15905324 -27.31640625 35.15234375 C-27.87763184 33.99250977 -28.43885742 32.83267578 -29.01708984 31.63769531 C-30.10682443 29.38687256 -31.19946389 27.13745321 -32.29541016 24.88964844 C-32.77929199 23.88836914 -33.26317383 22.88708984 -33.76171875 21.85546875 C-34.410802 20.51971802 -34.410802 20.51971802 -35.07299805 19.15698242 C-36 17 -36 17 -36 15 C-31.36138496 12.69037763 -26.71663569 10.39378845 -22.06567383 8.10913086 C-20.48383288 7.32982127 -18.9037386 6.54695595 -17.32543945 5.76049805 C-15.05868277 4.63174865 -12.78598659 3.51586552 -10.51171875 2.40234375 C-9.80536789 2.047202 -9.09901703 1.69206024 -8.3712616 1.32615662 C-3.34161512 -1.11387171 -3.34161512 -1.11387171 0 0 Z " fill="#C28677" transform="translate(229,269)"/>
<path d="M0 0 C3.56464091 2.52298114 5.92365708 4.87587801 8.30859375 8.51953125 C9.64579047 10.41598864 9.64579047 10.41598864 11.74609375 11.64453125 C15.72512953 12.05856016 19.29199653 11.96232019 23.28515625 11.6953125 C26.74609375 11.64453125 26.74609375 11.64453125 30.74609375 13.64453125 C29.50295125 31.04852623 27.02230798 48.34530314 24.74609375 65.64453125 C-1.98390625 65.64453125 -28.71390625 65.64453125 -56.25390625 65.64453125 C-57.44140625 44.83203125 -57.44140625 44.83203125 -57.77807617 38.33276367 C-58.35920331 28.5678252 -58.89240146 20.1093294 -64.25390625 11.64453125 C-63.26390625 11.67675781 -62.27390625 11.70898438 -61.25390625 11.7421875 C-53.60751321 11.91485045 -53.60751321 11.91485045 -46.8984375 8.78515625 C-45.6641991 7.21669978 -44.46127679 5.62314955 -43.2890625 4.0078125 C-32.58389374 -8.42333356 -13.00544562 -7.82129918 0 0 Z " fill="#3F9E46" transform="translate(280.25390625,117.35546875)"/>
<path d="M0 0 C6.40150527 5.05767783 11.14253017 11.02726143 12.4699707 19.23242188 C12.79423845 22.29635286 13.02918048 25.35553469 13.234375 28.4296875 C13.31623047 29.43966797 13.39808594 30.44964844 13.48242188 31.49023438 C14.17921548 40.92329732 14.046875 50.08834317 14.046875 59.6171875 C-11.363125 59.6171875 -36.773125 59.6171875 -62.953125 59.6171875 C-64.273125 54.9971875 -65.593125 50.3771875 -66.953125 45.6171875 C-67.819375 43.173125 -67.819375 43.173125 -68.703125 40.6796875 C-71.15529965 32.41040964 -71.51748955 22.99069804 -67.890625 15.0546875 C-63.6705929 7.87824874 -57.40087824 3.08095179 -49.32446289 0.91088867 C-12.23531998 -7.46776427 -12.23531998 -7.46776427 0 0 Z " fill="#FEA300" transform="translate(209.953125,123.3828125)"/>
<path d="M0 0 C1.25170898 2.01171875 1.25170898 2.01171875 2.49609375 4.6875 C3.20197632 6.18337646 3.20197632 6.18337646 3.92211914 7.70947266 C4.42219482 8.79534668 4.92227051 9.8812207 5.4375 11 C6.50745998 13.27881138 7.57778336 15.55745217 8.6484375 17.8359375 C9.19854492 19.01510742 9.74865234 20.19427734 10.31542969 21.40917969 C13.01807502 27.17012281 15.79400789 32.89549199 18.5625 38.625 C19.54467736 40.6580296 20.52524742 42.69183681 21.50390625 44.7265625 C21.91455322 45.57814941 22.3252002 46.42973633 22.74829102 47.30712891 C23.16135498 48.19577637 23.57441895 49.08442383 24 50 C24.54043945 51.01054443 25.08087891 52.02108887 25.63769531 53.06225586 C27.82654769 58.24998453 27.36924938 63.74403394 27.29296875 69.27734375 C27.28872391 70.4438295 27.28447906 71.61031525 27.28010559 72.81214905 C27.26337522 76.52083874 27.22573221 80.22897582 27.1875 83.9375 C27.17244593 86.4589765 27.15875879 88.98046156 27.14648438 91.50195312 C27.11348997 97.66818017 27.06174553 103.83399653 27 110 C21.06 110 15.12 110 9 110 C-13.92446197 63.2076451 -13.92446197 63.2076451 -21.52734375 47.19140625 C-23.43712396 43.16861041 -25.3731051 39.15905324 -27.31640625 35.15234375 C-27.87763184 33.99250977 -28.43885742 32.83267578 -29.01708984 31.63769531 C-30.10682443 29.38687256 -31.19946389 27.13745321 -32.29541016 24.88964844 C-32.77929199 23.88836914 -33.26317383 22.88708984 -33.76171875 21.85546875 C-34.410802 20.51971802 -34.410802 20.51971802 -35.07299805 19.15698242 C-36 17 -36 17 -36 15 C-31.36138496 12.69037763 -26.71663569 10.39378845 -22.06567383 8.10913086 C-20.48383288 7.32982127 -18.9037386 6.54695595 -17.32543945 5.76049805 C-15.05868277 4.63174865 -12.78598659 3.51586552 -10.51171875 2.40234375 C-9.80536789 2.047202 -9.09901703 1.69206024 -8.3712616 1.32615662 C-3.34161512 -1.11387171 -3.34161512 -1.11387171 0 0 Z " fill="#DFADA1" transform="translate(229,269)"/>
<path d="M0 0 C1.61648438 0.01353516 1.61648438 0.01353516 3.265625 0.02734375 C4.08546875 0.03894531 4.9053125 0.05054687 5.75 0.0625 C5.75 0.3925 5.75 0.7225 5.75 1.0625 C2.12 1.0625 -1.51 1.0625 -5.25 1.0625 C-5.25 24.1625 -5.25 47.2625 -5.25 71.0625 C-15.81 71.0625 -26.37 71.0625 -37.25 71.0625 C-37.48783203 66.59783203 -37.48783203 66.59783203 -37.73046875 62.04296875 C-37.90081939 59.12669196 -38.07860086 56.21095531 -38.25708008 53.29516602 C-38.37616685 51.28519401 -38.48765361 49.27475547 -38.59106445 47.26391602 C-39.218684 31.4545975 -39.218684 31.4545975 -45.25 17.0625 C-44.26 17.09472656 -43.27 17.12695312 -42.25 17.16015625 C-34.60360696 17.3328192 -34.60360696 17.3328192 -27.89453125 14.203125 C-26.66029285 12.63466853 -25.45737054 11.0411183 -24.28515625 9.42578125 C-18.3276114 2.50771093 -8.79493425 -0.09559711 0 0 Z " fill="#4BBB56" transform="translate(261.25,111.9375)"/>
<path d="M0 0 C2.77776096 13.93089207 4.89537123 27.95413528 7 42 C9.64 42 12.28 42 15 42 C15 42.33 15 42.66 15 43 C14.45287354 43.04487549 13.90574707 43.08975098 13.34204102 43.13598633 C1.08671305 44.16355533 -10.93099441 45.62732525 -23 48 C-23.0424585 47.37923584 -23.08491699 46.75847168 -23.12866211 46.11889648 C-23.76712317 38.00047664 -25.11486364 30.07113254 -26.5625 22.0625 C-27.02621416 19.49157205 -27.48497559 16.91990253 -27.94140625 14.34765625 C-28.14451416 13.22367432 -28.34762207 12.09969238 -28.55688477 10.94165039 C-29 8 -29 8 -29 4 C-25.10529437 3.32663096 -21.20907067 2.66248416 -17.3125 2 C-16.20970703 1.80921875 -15.10691406 1.6184375 -13.97070312 1.421875 C-12.90400391 1.24140625 -11.83730469 1.0609375 -10.73828125 0.875 C-9.75899658 0.70742187 -8.77971191 0.53984375 -7.77075195 0.3671875 C-5.14088643 0.01867065 -2.64876878 -0.06764613 0 0 Z " fill="#4CBC57" transform="translate(184,77)"/>
<path d="M0 0 C5.96118297 4.93997261 11.41486302 10.28529862 16.87109375 15.7734375 C18.25458763 17.1590538 18.25458763 17.1590538 19.66603088 18.57266235 C22.09633814 21.00675431 24.52362496 23.44383597 26.95025635 25.8815918 C29.43569364 28.3773311 31.92402932 30.87017708 34.41210938 33.36328125 C39.27755096 38.2393886 44.13980198 43.11866631 49 48 C48.34 48.99 47.68 49.98 47 51 C44.31366793 51.36138996 41.93737857 51.50963218 39.25 51.5 C38.19425781 51.54253906 38.19425781 51.54253906 37.1171875 51.5859375 C31.34242635 51.60740501 29.16708909 49.89862116 25 46 C19.22759427 42.92379632 13.48705867 41.48052286 7 41 C5.60563752 35.69209227 4.50172377 30.43346953 3.7109375 25 C3.54871201 23.91827515 3.54871201 23.91827515 3.38320923 22.81469727 C3.04347226 20.54365995 2.70914065 18.27186671 2.375 16 C2.14358848 14.44656102 1.91182078 12.89317504 1.6796875 11.33984375 C1.11567863 7.56049525 0.55651112 3.78045951 0 0 Z " fill="#4CD5CA" transform="translate(184,78)"/>
<path d="M0 0 C1.45823212 -0.0270043 2.91660675 -0.04639787 4.375 -0.0625 C5.18710937 -0.07410156 5.99921875 -0.08570312 6.8359375 -0.09765625 C9 0 9 0 11 1 C8.95946926 18.04467703 6.91370156 35.08873009 4.83789062 52.12915039 C4.52431249 54.70905829 4.21218184 57.28914247 3.90136719 59.86938477 C3.44554338 63.6516371 2.98500692 67.43328886 2.5234375 71.21484375 C2.38489349 72.37290024 2.24634949 73.53095673 2.10360718 74.72410583 C1.97322052 75.78444534 1.84283386 76.84478485 1.70849609 77.93725586 C1.59541107 78.87000839 1.48232605 79.80276093 1.36581421 80.76377869 C1 83 1 83 0 85 C-3.3 85 -6.6 85 -10 85 C-10.11920314 78.65600877 -9.71447232 72.64378078 -8.828125 66.3671875 C-8.70561371 65.46382156 -8.58310242 64.56045563 -8.45687866 63.62971497 C-8.05995343 60.71071465 -7.65496502 57.79289467 -7.25 54.875 C-6.97506545 52.86182822 -6.70081891 50.84856236 -6.42724609 48.83520508 C-6.01478986 45.79996082 -5.60197993 42.76477144 -5.1869812 39.72987366 C-3.95577756 30.72128966 -2.77923506 21.70622583 -1.625 12.6875 C-1.45774414 11.38474121 -1.29048828 10.08198242 -1.11816406 8.73974609 C-0.74453091 5.82661275 -0.37172177 2.91337774 0 0 Z " fill="#90E44B" transform="translate(315,98)"/>
</svg>
